<?xml version="1.0" encoding="UTF-8" standalone="no"?>
<!-- Created with Inkscape (http://www.inkscape.org/) -->

<svg
   xmlns:dc="http://purl.org/dc/elements/1.1/"
   xmlns:cc="http://creativecommons.org/ns#"
   xmlns:rdf="http://www.w3.org/1999/02/22-rdf-syntax-ns#"
   xmlns:svg="http://www.w3.org/2000/svg"
   xmlns="http://www.w3.org/2000/svg"
   xmlns:sodipodi="http://sodipodi.sourceforge.net/DTD/sodipodi-0.dtd"
   xmlns:inkscape="http://www.inkscape.org/namespaces/inkscape"
   width="454"
   height="139"
   id="svg2"
   version="1.1"
   inkscape:version="0.48.4 r9939"
   sodipodi:docname="anzeige_e1.svg"
   inkscape:export-filename="/home/flo/Documents/projects/linuxtage/gltgit/glt15/grafiken/anzeigen/anzeige_e1.png"
   inkscape:export-xdpi="256.56567"
   inkscape:export-ydpi="256.56567">
  <defs
     id="defs4" />
  <sodipodi:namedview
     id="base"
     pagecolor="#ffffff"
     bordercolor="#666666"
     borderopacity="1.0"
     inkscape:pageopacity="1"
     inkscape:pageshadow="2"
     inkscape:zoom="1.7381744"
     inkscape:cx="166.16925"
     inkscape:cy="104.85959"
     inkscape:document-units="px"
     inkscape:current-layer="layer1"
     showgrid="false"
     borderlayer="true"
     inkscape:window-width="1280"
     inkscape:window-height="753"
     inkscape:window-x="0"
     inkscape:window-y="25"
     inkscape:window-maximized="1" />
  <metadata
     id="metadata7">
    <rdf:RDF>
      <cc:Work
         rdf:about="">
        <dc:format>image/svg+xml</dc:format>
        <dc:type
           rdf:resource="http://purl.org/dc/dcmitype/StillImage" />
        <dc:title />
      </cc:Work>
    </rdf:RDF>
  </metadata>
  <g
     inkscape:label="Layer 1"
     inkscape:groupmode="layer"
     id="layer1"
     transform="translate(0,-913.36218)">
    <g
       style="display:inline"
       id="g10454"
       transform="matrix(0.64353724,0,0,0.64353724,275.10523,557.85538)">
      <rect
         style="fill:#ffffff;fill-opacity:1;stroke:#000000;stroke-width:14.74640846;stroke-linecap:butt;stroke-linejoin:miter;stroke-miterlimit:4;stroke-opacity:1;stroke-dasharray:none;display:inline"
         id="rect10456"
         y="559.91351"
         x="-419.49115"
         height="201.01898"
         width="689.47974" />
      <g
         style="font-size:26.01657295px;font-style:normal;font-variant:normal;font-weight:normal;font-stretch:normal;fill:#000000;fill-opacity:1;stroke:#000000;stroke-width:7.13026619;stroke-miterlimit:4;stroke-opacity:1;display:inline;font-family:Haettenschweiler;-inkscape-font-specification:Haettenschweiler"
         id="g10458"
         transform="matrix(0.98224706,0,0,1.5907404,-429.25934,1602.0328)">
        <path
           inkscape:connector-curvature="0"
           style="font-size:121.95269012px;font-weight:800;fill:#000000;fill-opacity:1;stroke:#000000;stroke-width:7.13026619;stroke-opacity:1;font-family:TitilliumMaps29L;-inkscape-font-specification:TitilliumMaps29L Ultra-Bold"
           id="path10461"
           d="m 135.19144,-562.65198 -31.34184,0 0,-70.97646 -14.146515,0 0,84.39126 45.488355,0 z" />
        <path
           inkscape:connector-curvature="0"
           style="font-size:121.95269012px;font-weight:800;fill:#000000;fill-opacity:1;stroke:#000000;stroke-opacity:1;font-family:TitilliumMaps29L;-inkscape-font-specification:TitilliumMaps29L Ultra-Bold"
           id="path10463"
           d="m 165.53776,-549.23718 0,-84.39126 -14.39042,0 0,84.39126 z" />
        <path
           inkscape:connector-curvature="0"
           style="font-size:121.95269012px;font-weight:800;fill:#000000;fill-opacity:1;stroke:#000000;stroke-opacity:1;font-family:TitilliumMaps29L;-inkscape-font-specification:TitilliumMaps29L Ultra-Bold"
           id="path10465"
           d="m 198.90134,-549.23718 0,-69.51304 1.70734,0 25.73202,69.51304 23.53687,0 0,-84.39126 -14.39042,0 0,69.51303 -1.70734,0 -25.12225,-69.51303 -24.02468,0 0,84.39126 z" />
        <path
           inkscape:connector-curvature="0"
           style="font-size:121.95269012px;font-weight:800;fill:#000000;fill-opacity:1;stroke:#000000;stroke-opacity:1;font-family:TitilliumMaps29L;-inkscape-font-specification:TitilliumMaps29L Ultra-Bold"
           id="path10467"
           d="m 282.95914,-633.62844 -14.26847,0 0,57.19581 c 0,20.00022 9.26843,28.29302 30.24427,28.29302 21.21975,0 30.36622,-8.2928 30.36622,-28.29302 l 0,-57.19581 -14.26846,0 0,57.19581 c 0,10.60987 -5.12203,14.63432 -16.09776,14.63432 -10.85378,0 -15.9758,-3.9025 -15.9758,-14.63432 z" />
        <path
           inkscape:connector-curvature="0"
           style="font-size:121.95269012px;font-weight:800;fill:#000000;fill-opacity:1;stroke:#000000;stroke-opacity:1;font-family:TitilliumMaps29L;-inkscape-font-specification:TitilliumMaps29L Ultra-Bold"
           id="path10469"
           d="m 341.31732,-633.62844 23.53687,42.56148 -23.53687,41.82978 15.9758,0 16.46361,-31.58575 16.34166,31.58575 15.97581,0 -23.17101,-41.82978 23.17101,-42.56148 -15.97581,0 -16.34166,32.19551 -16.46361,-32.19551 z" />
        <path
           inkscape:connector-curvature="0"
           style="font-size:121.95269012px;font-weight:800;fill:#000000;fill-opacity:1;stroke:#000000;stroke-width:8.91283321;stroke-opacity:1;font-family:TitilliumMaps29L;-inkscape-font-specification:TitilliumMaps29L Ultra-Bold"
           id="path10471"
           transform="matrix(1.0180738,0,0,0.6286381,-543.35514,-872.55144)"
           d="m 947.28125,380.0625 -7.375,21.9375 17.84375,0 0,112.3125 13.875,0 0,-112.3125 20.84375,0 0,-21.9375 z" />
        <path
           inkscape:connector-curvature="0"
           style="font-size:121.95269012px;font-weight:800;fill:#000000;fill-opacity:1;stroke:#000000;stroke-opacity:1;font-family:TitilliumMaps29L;-inkscape-font-specification:TitilliumMaps29L Ultra-Bold"
           id="path10473"
           d="m 485.88652,-549.23718 4.14639,-16.82947 29.3906,0 4.6342,16.82947 14.39042,0 -19.87829,-84.39126 -26.95154,0 -20.1222,84.39126 z m 21.34172,-71.83014 9.51231,41.70782 -23.78077,0 9.87817,-41.70782 z" />
        <path
           inkscape:connector-curvature="0"
           style="font-size:121.95269012px;font-weight:800;fill:#000000;fill-opacity:1;stroke:#000000;stroke-opacity:1;font-family:TitilliumMaps29L;-inkscape-font-specification:TitilliumMaps29L Ultra-Bold"
           id="path10475"
           d="m 580.40915,-584.43505 13.58461,0 0,22.27088 c -0.12195,0 -7.19521,0.85367 -11.95136,0.85367 -15.60993,0 -19.39048,-8.78061 -19.39048,-30.24427 0,-22.07341 4.63421,-30.00036 19.75633,-30.00036 10.12207,0 25.83971,0.0215 25.83971,0.0215 l -0.0288,-12.15659 c 0,0 -16.05474,-0.0224 -27.88414,-0.0224 -23.90271,0 -32.43942,12.88926 -32.43942,42.15787 0,27.80519 7.805,42.40179 32.92723,42.40179 9.63425,0 27.3174,-0.15343 27.3174,-0.15343 l 0.20464,-48.27753 -27.73112,0" />
        <path
           inkscape:connector-curvature="0"
           style="font-size:121.95269012px;font-weight:800;fill:#000000;fill-opacity:1;stroke:#000000;stroke-opacity:1;font-family:TitilliumMaps29L;-inkscape-font-specification:TitilliumMaps29L Ultra-Bold"
           id="path10477"
           d="m 676.50808,-549.23718 0,-13.17089 -37.31752,0 0,-22.31735 30.00036,0 0,-12.80503 -30.00036,0 0,-22.9271 37.31752,0 0,-13.17089 -51.46404,0 0,84.39126 z" />
      </g>
      <g
         style="font-size:31.52023697px;font-style:normal;font-weight:normal;line-height:125%;fill:#000000;fill-opacity:1;stroke:none;display:inline;font-family:Bitstream Vera Sans"
         id="g10479"
         transform="matrix(0,-1.1926355,1.3101236,0,-429.25934,1602.0328)">
        <path
           inkscape:connector-curvature="0"
           style="font-size:39.73449326px;font-variant:normal;font-stretch:normal;text-align:start;line-height:125%;writing-mode:lr-tb;text-anchor:start;fill:#000000;fill-opacity:1;font-family:Ubuntu;-inkscape-font-specification:Ubuntu"
           id="path10481"
           d="m 747.86072,43.707309 3.85425,0 0,12.873976 c -0.3179,0.105959 -0.78147,0.225162 -1.39071,0.35761 -0.58279,0.132449 -1.27153,0.264897 -2.06619,0.397345 -0.76822,0.132448 -1.61589,0.238407 -2.54301,0.317876 -0.92716,0.105958 -1.86754,0.158937 -2.82115,0.158938 -1.93376,-1e-6 -3.69532,-0.317876 -5.28469,-0.953628 -1.58939,-0.635751 -2.9536,-1.562888 -4.09265,-2.781414 -1.13906,-1.21852 -2.02646,-2.715185 -2.66221,-4.489998 -0.60927,-1.774798 -0.9139,-3.8145 -0.9139,-6.119112 0,-2.304585 0.34437,-4.344287 1.0331,-6.119112 0.71522,-1.801275 1.66885,-3.311185 2.86089,-4.529732 1.19202,-1.218499 2.58273,-2.145636 4.17212,-2.781415 1.61585,-0.635724 3.33768,-0.953599 5.16548,-0.953628 1.245,2.9e-5 2.34432,0.0795 3.29796,0.238407 0.9801,0.158966 1.81453,0.344394 2.50328,0.556283 0.68871,0.211945 1.24499,0.423862 1.66885,0.635752 0.4503,0.211944 0.75493,0.370882 0.91389,0.476814 l -1.23177,3.218494 c -0.76822,-0.50328 -1.78807,-0.913869 -3.05956,-1.231769 -1.27152,-0.344341 -2.56951,-0.516524 -3.89398,-0.516549 -1.40396,2.5e-5 -2.68871,0.251677 -3.85424,0.754956 -1.13907,0.503327 -2.11918,1.231792 -2.94035,2.185397 -0.7947,0.953649 -1.41721,2.119193 -1.86753,3.496635 -0.45033,1.35099 -0.67549,2.874144 -0.67548,4.569467 -1e-5,1.642371 0.18542,3.139036 0.55628,4.489998 0.39734,1.35098 0.98011,2.516524 1.74832,3.496635 0.79468,0.953633 1.76155,1.695343 2.90062,2.225132 1.16553,0.529796 2.52974,0.794692 4.09265,0.79469 1.11255,2e-6 2.05293,-0.05298 2.82115,-0.158938 0.79467,-0.132446 1.3642,-0.251649 1.70858,-0.357611 l 0,-10.251499" />
        <path
           inkscape:connector-curvature="0"
           style="font-size:39.73449326px;font-variant:normal;font-stretch:normal;text-align:start;line-height:125%;writing-mode:lr-tb;text-anchor:start;fill:#000000;fill-opacity:1;font-family:Ubuntu;-inkscape-font-specification:Ubuntu"
           id="path10483"
           d="m 765.14026,36.157755 c 0.31786,2.1e-5 0.67547,0.02651 1.07283,0.07947 0.42382,0.02651 0.83441,0.07949 1.23177,0.158938 0.39733,0.053 0.75494,0.119224 1.07283,0.198673 0.34435,0.053 0.596,0.105979 0.75496,0.158938 l -0.63575,3.218494 c -0.29141,-0.105942 -0.78146,-0.225145 -1.47018,-0.357611 -0.66225,-0.15892 -1.52317,-0.238389 -2.58274,-0.238407 -0.68874,1.8e-5 -1.37747,0.07949 -2.0662,0.238407 -0.66225,0.132466 -1.09932,0.22518 -1.31124,0.278142 l 0,17.363973 -3.6953,0 0,-19.787778 c 0.87415,-0.317855 1.96023,-0.609241 3.25823,-0.874158 1.29798,-0.291366 2.75491,-0.437059 4.37079,-0.43708" />
        <path
           inkscape:connector-curvature="0"
           style="font-size:39.73449326px;font-variant:normal;font-stretch:normal;text-align:start;line-height:125%;writing-mode:lr-tb;text-anchor:start;fill:#000000;fill-opacity:1;font-family:Ubuntu;-inkscape-font-specification:Ubuntu"
           id="path10485"
           d="m 779.87058,54.59456 c 0.87415,3e-6 1.64235,-0.01324 2.3046,-0.03973 0.68872,-0.05298 1.25825,-0.132446 1.70859,-0.238407 l 0,-6.158847 c -0.26492,-0.132439 -0.70199,-0.238397 -1.31124,-0.317876 -0.58279,-0.105949 -1.29801,-0.158928 -2.14567,-0.158938 -0.55629,10e-6 -1.15231,0.03974 -1.78805,0.119204 -0.60927,0.07948 -1.1788,0.251661 -1.70858,0.516548 -0.50331,0.238416 -0.92715,0.582781 -1.2715,1.033097 -0.34438,0.423842 -0.51656,0.993369 -0.51655,1.708583 -1e-5,1.324488 0.42383,2.251625 1.2715,2.781415 0.84766,0.503306 1.99996,0.754958 3.4569,0.754955 M 779.55271,36.07829 c 1.48341,2.1e-5 2.72842,0.198694 3.73504,0.596018 1.03308,0.370875 1.85426,0.913913 2.46354,1.629114 0.63573,0.688749 1.08606,1.523173 1.35097,2.503273 0.26488,0.953643 0.39733,2.013229 0.39734,3.178759 l 0,12.913711 c -0.31789,0.05298 -0.76821,0.132448 -1.35097,0.238407 -0.5563,0.07947 -1.19205,0.158938 -1.90725,0.238407 -0.71524,0.07947 -1.49668,0.145692 -2.34434,0.198672 -0.82119,0.07947 -1.64237,0.119203 -2.46354,0.119204 -1.16555,-10e-7 -2.23838,-0.119204 -3.21849,-0.357611 -0.98012,-0.238407 -1.82779,-0.609262 -2.54301,-1.112566 -0.71522,-0.529791 -1.27151,-1.218522 -1.66885,-2.066193 -0.39735,-0.847666 -0.59602,-1.867517 -0.59602,-3.059556 0,-1.139049 0.22516,-2.119165 0.67549,-2.940353 0.47681,-0.821169 1.11256,-1.48341 1.90726,-1.986725 0.79468,-0.503292 1.72182,-0.874146 2.78141,-1.112565 1.05958,-0.238395 2.17214,-0.357598 3.3377,-0.357611 0.37084,1.3e-5 0.75494,0.0265 1.1523,0.07947 0.39733,0.0265 0.76819,0.07948 1.11256,0.158938 0.37085,0.05299 0.68872,0.105971 0.95363,0.158938 0.26489,0.05299 0.45031,0.09273 0.55629,0.119204 l 0,-1.033097 c -2e-5,-0.609249 -0.0662,-1.205266 -0.19868,-1.788052 -0.13246,-0.609247 -0.37087,-1.13904 -0.71522,-1.58938 -0.34438,-0.476797 -0.82119,-0.847652 -1.43044,-1.112566 -0.58278,-0.291368 -1.35098,-0.437061 -2.3046,-0.437079 -1.21853,1.8e-5 -2.29136,0.09273 -3.21849,0.278141 -0.90066,0.158956 -1.57614,0.331138 -2.02646,0.516549 L 773.5528,36.99218 c 0.47681,-0.211897 1.2715,-0.41057 2.38407,-0.596018 1.11256,-0.211896 2.31783,-0.317855 3.61584,-0.317876" />
        <path
           inkscape:connector-curvature="0"
           style="font-size:39.73449326px;font-variant:normal;font-stretch:normal;text-align:start;line-height:125%;writing-mode:lr-tb;text-anchor:start;fill:#000000;fill-opacity:1;font-family:Ubuntu;-inkscape-font-specification:Ubuntu"
           id="path10487"
           d="m 807.30663,39.376249 c -0.5563,0.60928 -1.29801,1.470193 -2.22513,2.582742 -0.90067,1.11258 -1.88078,2.344348 -2.94036,3.695308 -1.0331,1.350983 -2.07944,2.768179 -3.13902,4.251591 -1.03311,1.483427 -1.947,2.900622 -2.74168,4.251591 l 11.36406,0 0,3.09929 -15.77459,0 0,-2.463538 c 0.63575,-1.165542 1.41719,-2.450289 2.34433,-3.854246 0.92714,-1.403945 1.89401,-2.794651 2.90062,-4.172122 1.03309,-1.40394 2.02645,-2.715177 2.98009,-3.933715 0.98011,-1.244998 1.82777,-2.291339 2.54301,-3.139025 l -10.21177,0 0,-3.09929 14.90044,0 0,2.781414" />
        <path
           inkscape:connector-curvature="0"
           style="font-size:39.73449326px;font-variant:normal;font-stretch:normal;text-align:start;line-height:125%;writing-mode:lr-tb;text-anchor:start;fill:#000000;fill-opacity:1;font-family:Ubuntu;-inkscape-font-specification:Ubuntu"
           id="path10489"
           d="m 810.37302,46.965537 c -10e-6,-1.827774 0.26489,-3.417152 0.79469,-4.768139 0.52979,-1.377446 1.23176,-2.5165 2.10592,-3.417166 0.87416,-0.900629 1.88076,-1.576115 3.01983,-2.026459 1.13904,-0.450304 2.30459,-0.675466 3.49663,-0.675487 2.7814,2.1e-5 4.91382,0.874179 6.39726,2.622477 1.4834,1.721845 2.22511,4.357563 2.22513,7.907164 -2e-5,0.158948 -2e-5,0.370865 0,0.635752 -2e-5,0.238417 -0.0133,0.463578 -0.0397,0.675486 l -14.14548,0 c 0.15893,2.14567 0.78144,3.774783 1.86752,4.887343 1.08607,1.112569 2.78141,1.668851 5.08602,1.668849 1.29798,2e-6 2.38405,-0.105956 3.25823,-0.317876 0.90063,-0.238404 1.57611,-0.463566 2.02646,-0.675487 l 0.51654,3.099291 c -0.45034,0.238407 -1.24503,0.490059 -2.38406,0.754955 -1.11259,0.264896 -2.38409,0.397345 -3.81452,0.397345 -1.8013,0 -3.36419,-0.264897 -4.68867,-0.79469 -1.298,-0.556282 -2.37083,-1.311237 -3.21849,-2.264866 -0.84767,-0.953624 -1.48342,-2.079434 -1.90726,-3.377432 -0.39734,-1.324476 -0.59602,-2.768161 -0.59601,-4.33106 m 14.18521,-2.026459 c 0.0265,-1.668835 -0.39736,-3.033051 -1.2715,-4.092653 -0.84769,-1.086058 -2.02647,-1.629096 -3.53637,-1.629114 -0.84768,1.8e-5 -1.60264,0.172201 -2.26487,0.516549 -0.63576,0.317893 -1.1788,0.741727 -1.62911,1.271503 -0.45033,0.529809 -0.80794,1.139071 -1.07283,1.827787 -0.23842,0.688745 -0.39736,1.39072 -0.47682,2.105928 l 10.2515,0" />
        <path
           inkscape:connector-curvature="0"
           style="font-size:39.73449326px;font-variant:normal;font-stretch:normal;text-align:start;line-height:125%;writing-mode:lr-tb;text-anchor:start;fill:#000000;fill-opacity:1;font-family:Ubuntu;-inkscape-font-specification:Ubuntu"
           id="path10491"
           d="m 841.34977,36.157755 c 0.31787,2.1e-5 0.67548,0.02651 1.07284,0.07947 0.42382,0.02651 0.83441,0.07949 1.23176,0.158938 0.39734,0.053 0.75495,0.119224 1.07284,0.198673 0.34435,0.053 0.596,0.105979 0.75495,0.158938 l -0.63575,3.218494 c -0.2914,-0.105942 -0.78146,-0.225145 -1.47018,-0.357611 -0.66225,-0.15892 -1.52316,-0.238389 -2.58274,-0.238407 -0.68874,1.8e-5 -1.37747,0.07949 -2.06619,0.238407 -0.66225,0.132466 -1.09933,0.22518 -1.31124,0.278142 l 0,17.363973 -3.69531,0 0,-19.787778 c 0.87416,-0.317855 1.96023,-0.609241 3.25823,-0.874158 1.29799,-0.291366 2.75492,-0.437059 4.37079,-0.43708" />
      </g>
    </g>
  </g>
</svg>
