<?xml version="1.0" encoding="UTF-8" standalone="no"?>
<!-- Created with Inkscape (http://www.inkscape.org/) -->

<svg
   xmlns:dc="http://purl.org/dc/elements/1.1/"
   xmlns:cc="http://creativecommons.org/ns#"
   xmlns:rdf="http://www.w3.org/1999/02/22-rdf-syntax-ns#"
   xmlns:svg="http://www.w3.org/2000/svg"
   xmlns="http://www.w3.org/2000/svg"
   xmlns:sodipodi="http://sodipodi.sourceforge.net/DTD/sodipodi-0.dtd"
   xmlns:inkscape="http://www.inkscape.org/namespaces/inkscape"
   width="458.62234"
   height="583.64679"
   id="svg4190"
   version="1.1"
   inkscape:version="0.48.4 r9939"
   sodipodi:docname="steirertux.svg"
   inkscape:export-filename="/home/flo/Documents/projects/linuxtage/gltgit/glt12/grafiken/logo/steirertux.png"
   inkscape:export-xdpi="138.78256"
   inkscape:export-ydpi="138.78256"
   enable-background="new">
  <defs
     id="defs4192" />
  <sodipodi:namedview
     id="base"
     pagecolor="#8d8d8d"
     bordercolor="#666666"
     borderopacity="1.0"
     inkscape:pageopacity="0.37647059"
     inkscape:pageshadow="2"
     inkscape:zoom="1.3956849"
     inkscape:cx="261.7629"
     inkscape:cy="344.22571"
     inkscape:document-units="px"
     inkscape:current-layer="layer7"
     showgrid="false"
     inkscape:window-width="1871"
     inkscape:window-height="1176"
     inkscape:window-x="49"
     inkscape:window-y="24"
     inkscape:window-maximized="1"
     units="mm"
     fit-margin-top="0.6"
     fit-margin-right="0.6"
     fit-margin-bottom="0.6"
     fit-margin-left="0.6" />
  <metadata
     id="metadata4195">
    <rdf:RDF>
      <cc:Work
         rdf:about="">
        <dc:format>image/svg+xml</dc:format>
        <dc:type
           rdf:resource="http://purl.org/dc/dcmitype/StillImage" />
        <dc:title />
      </cc:Work>
    </rdf:RDF>
  </metadata>
  <g
     inkscape:groupmode="layer"
     id="layer7"
     inkscape:label="Tux"
     style="display:inline">
    <g
       id="g3093">
      <path
         sodipodi:nodetypes="cccccccccccccccccccccscccccccscccccccc"
         inkscape:connector-curvature="0"
         d="m 302.39927,158.25906 c 4.95972,27.22874 1.0154,56.17731 12.50548,82.12068 12.59936,23.52316 26.6976,46.41063 44.72227,66.66421 18.80391,23.2771 30.30057,51.16114 34.63712,80.04146 3.47677,15.36121 5.54615,34.0451 -7.98699,45.84849 4.09204,7.00434 16.02765,8.84112 14.42729,17.32327 -0.41492,17.07705 16.61211,27.42692 30.17191,35.50021 7.89896,3.73334 12.48974,14.81843 4.0584,20.44735 -13.07656,10.07265 -28.28654,16.91132 -43.49079,23.55278 -14.42168,6.89378 -25.88389,17.63719 -37.27092,28.16718 -13.11299,10.23041 -32.50543,9.0026 -47.64415,3.95549 -8.57147,-3.09835 -11.09801,-11.99098 -16.7305,-17.72675 -31.55954,-2.45964 -72.48996,-4.3004 -100.05912,0.39664 -15.33226,2.0838 -23.87824,16.07462 -37.54869,21.0067 -16.41847,2.61149 -31.4464,-7.03163 -46.48659,-11.75918 -25.212812,-9.97879 -53.01561,-11.32554 -78.712766,-19.6238 -8.948525,-2.81699 -9.394291,-12.89251 -5.401021,-19.61121 5.498182,-10.94002 5.315258,-23.5007 0.521375,-34.61977 -2.867591,-8.78669 -0.938595,-23.05432 11.278204,-23.61968 11.239188,-0.26876 26.6409,2.21336 32.639358,-9.47048 3.083812,-4.48378 2.938329,-11.16296 7.389143,-14.5755 7.395926,-1.93238 2.729126,-14.92366 2.413592,-22.80524 -0.674048,-16.83673 12.886852,-29.82931 18.52497,-44.98683 9.515295,-19.95436 14.430415,-42.30263 30.252535,-59.09709 12.15921,-14.84682 23.07189,-30.60364 34.03076,-46.20927 3.34849,-10.50708 -0.47655,-21.85396 0.0335,-32.70971 -0.79498,-16.30099 -1.42519,-33.0826 -2.02144,-47.75136 l 2.95966,-17.54244 c -16.6897,-7.27789 -34.24246,-33.56744 -16.44443,-47.03439 14.09142,-3.16724 20.77367,-4.84393 23.76492,-20.642574 3.99544,-21.10253 13.82487,-43.1248 32.08351,-57.09464 18.07979,-9.5916 20.26033,28.01404 32.68472,4.33361 15.25333,-21.43753 39.38222,-6.61056 44.05893,14.89553 -10.87707,-29.023396 8.70854,-14.810027 6.69365,-36.934081 32.14094,-3.075196 68.01,6.11296 88.88342,30.52034 -20.17114,16.186215 -39.78936,33.59352 -55.32554,53.818925 -11.27302,10.09573 0.98494,15.06509 0.98494,15.06509 7.73205,16.87569 -4.16878,26.43789 -14.59671,40.15604 z"
         style="fill:#ffffff;fill-opacity:1;stroke:#ffffff;stroke-width:32;stroke-linecap:butt;stroke-linejoin:round;stroke-miterlimit:10;stroke-opacity:1;stroke-dasharray:none"
         id="path3019" />
      <path
         style="fill:#f8c200;fill-opacity:1;fill-rule:evenodd;stroke:none;display:inline"
         d="m 190.64953,200.73493 c 21.1249,-9.68557 44.52455,2.23507 64.79428,8.53199 11.09401,2.35619 19.02666,7.39285 18.75785,18.69403 0.12067,14.13474 -28.98641,17.28417 -38.96944,28.16856 -17.73072,12.14113 -43.33213,10.63659 -57.96702,-5.22547 -19.47628,-10.91984 -13.79198,-34.68293 4.60816,-43.5826 2.88288,-2.24519 5.81977,-4.42807 8.77617,-6.5865"
         id="path4112"
         inkscape:connector-curvature="0" />
      <path
         inkscape:connector-curvature="0"
         id="path3957"
         d="m 201.03939,203.38446 c -3.58171,-1.49763 -12.58395,1.40768 -7.94981,5.61535 3.46697,-0.18093 5.10755,-5.15101 7.94981,-5.61535 z"
         style="fill:#000000;fill-opacity:1;fill-rule:nonzero;stroke:none;display:inline" />
      <path
         inkscape:connector-curvature="0"
         id="path3955"
         d="m 215.94525,203.9193 c 2.08632,4.09932 14.28325,3.45115 6.9563,-0.93603 -1.66897,0.47167 -6.71314,-0.88117 -6.9563,0.93603 z"
         style="fill:#000000;fill-opacity:1;fill-rule:nonzero;stroke:none;display:inline" />
      <path
         sodipodi:nodetypes="cccccccccccccc"
         id="path3126"
         d="m 169.0979,230.25872 c 9.53709,2.48878 11.38486,14.93391 22.24539,15.03042 21.61843,1.60545 42.1343,-6.95013 61.7959,-14.22809 1.4348,-3.5524 8.35574,-7.95405 8.94367,-1.6045 -5.91924,7.19895 -17.39371,7.67049 -25.85587,11.36253 -13.15975,5.7875 -27.03515,12.36695 -42.08843,9.78535 -2.60893,-0.13323 -14.5588,-2.29892 -8.24728,3.1651 7.03153,7.39136 18.01397,10.58315 28.06661,7.10743 14.12696,-4.44006 27.45763,-11.10186 40.72346,-17.13058 8.36013,-0.51548 2.53243,7.95095 -2.3938,8.57356 -15.08193,5.38056 -27.85293,15.17646 -40.03327,24.86877 -9.09713,4.49169 -20.6032,1.87351 -26.12102,-6.41779 -6.05872,-5.12938 -7.79844,-14.55251 -15.47364,-17.64888 -1.79367,-7.96162 -6.986,-20.85113 -1.56172,-22.86332 z"
         style="fill:#000000;fill-opacity:1;fill-rule:nonzero;stroke:none;display:inline"
         inkscape:connector-curvature="0" />
      <path
         inkscape:connector-curvature="0"
         id="path4358"
         d="m 511.40907,651.8895 c -3.81532,-4.78934 -10.13414,-7.11259 -15.33744,-9.59965 2.30202,-12.52248 7.01262,-25.1968 5.04847,-38.21511 -2.16137,-21.87 -14.32051,-41.98289 -28.7453,-58.79093 -2.62421,-2.73048 -8.73719,-8.77742 -11.65136,-6.88161 16.30392,21.65596 32.70499,45.24438 34.57979,72.52686 0.46573,11.74421 0.49787,27.39 -11.7241,34.03495 -5.99389,1.66394 -16.81296,2.78663 -16.60946,-5.74921 -0.34464,-22.43388 1.25476,-46.35207 -11.30802,-66.49236 -7.14168,-13.26959 -16.17872,-25.8642 -18.64585,-40.87166 -3.55964,-12.66517 -10.26702,-24.16753 -18.88096,-34.36185 -7.3109,-8.72912 -4.60929,-19.97448 -1.07232,-29.52283 3.52499,-8.08996 -5.22804,-13.36139 -12.58437,-14.41397 -9.89629,-3.24322 -25.40292,-5.92182 -26.09246,-18.10164 -1.38142,-8.83584 5.53151,-20.02158 16.2918,-17.11791 10.57919,0.79152 14.70046,12.21226 10.48644,20.40447 -3.95905,4.89468 0.27693,10.14486 6.2866,9.46086 7.8762,-2.04071 6.63047,-12.50202 6.11653,-18.63027 -2.20963,-10.70274 -4.98628,-25.62682 -18.88095,-27.543 -8.96236,-2.3978 -20.12449,-1.44896 -24.73445,7.34389 -6.36375,8.62749 -6.45662,19.61884 -5.21939,29.55824 -6.05912,-0.78781 -13.09034,-2.58248 -19.73284,-1.73815 -4.83073,-2.75032 -0.86227,-9.95548 -2.83908,-14.43988 -0.23034,-9.68585 -8.05088,-22.08609 -19.965,-18.56056 -14.68354,4.59163 -14.1766,21.98042 -11.65851,33.69818 1.20292,4.1656 2.40446,13.11421 8.62568,11.87048 5.49701,-4.21628 3.43643,-7.56077 -1.84549,-10.16128 -4.81923,-7.05191 -5.70263,-20.871 6.10434,-21.79373 8.8868,-0.0196 13.2223,10.89843 12.39516,18.01787 -1.23073,7.68368 -11.1149,9.62965 -15.60772,15.41161 -6.15392,3.52876 -14.73413,11.07513 -9.42209,18.17991 2.33156,8.90786 4.84784,17.94697 1.56172,22.86332 -3.05798,13.5649 -11.40017,25.50586 -17.31921,38.10568 -3.79561,8.87603 -0.36666,18.54331 -2.56326,27.45343 -12.32734,16.53359 -21.2438,35.58022 -25.64701,55.38046 -2.407,12.51354 -2.67412,25.25507 -2.59557,37.90035 -1.7857,6.93255 -9.541,-0.40385 -12.06678,-3.34265 -11.19452,-11.76883 -6.38251,-28.69017 -4.11671,-42.38406 -5.64115,3.30146 -6.16939,12.12181 -7.17578,18.17347 -2.02742,16.26902 6.61987,32.00041 20.11585,41.85477 16.96278,15.38569 35.75518,28.82623 53.81464,42.95462 8.16682,5.91339 10.25021,18.87535 0.50626,24.43148 -4.06382,2.71521 -9.48369,4.31218 -8.83669,7.32459 0.2421,1.12723 1.33369,2.45265 3.6637,4.10901 l -11.72975,-9.53528 c -1.62155,-2.39931 -3.29406,-4.72669 -4.94523,-6.96896 -16.40404,-22.13097 -30.3375,-46.58884 -51.80142,-64.85118 -6.28565,-5.58611 -15.33608,-4.94951 -22.28782,-0.93605 -6.72477,0.16472 -4.54697,-11.28231 -4.6406,-13.46061 -0.73683,-17.14153 13.12175,-30.37303 18.86265,-45.80686 9.68875,-20.31807 14.69346,-43.07372 30.80398,-60.1743 12.38084,-15.11746 23.49244,-31.16149 34.65109,-47.05157 3.40953,-10.69862 -0.48525,-22.25233 0.0341,-33.30596 -0.81189,-16.20257 -1.39425,-32.4135 -2.05831,-48.62178 l 2e-5,0 c -0.56641,-24.19405 2.77653,-52.95259 25.77385,-67.8525 21.59677,-12.67894 49.32924,-12.32766 73.24689,-6.41186 25.82378,6.60253 46.98823,27.93022 49.38305,53.43286 5.05013,27.72506 1.0339,57.2013 12.73343,83.61757 12.82902,23.95195 27.18424,47.25661 45.53748,67.87937 19.14667,23.70141 30.8529,52.09373 35.26849,81.50047 3.54015,15.64122 5.64725,34.66568 -8.13258,46.68421 z"
         style="fill:#000000;fill-opacity:1;fill-rule:nonzero;stroke:none;display:inline"
         transform="translate(-145.68882,-239.1525)"
         sodipodi:nodetypes="ccccccccccccccccccccccccccccccccccccccccccscccccscccccccccccccc" />
      <path
         inkscape:connector-curvature="0"
         id="path3963"
         d="m 326.56973,781.34152 c 13.02664,-6.78672 10.0856,-25.268 -0.80527,-32.54657 -2.9699,-6.336 7.89961,-2.5876 9.55567,0.69945 13.12158,10.92111 32.22597,6.97917 48.12175,6.02246 17.60208,-1.3639 34.9205,-9.5678 44.10169,-24.17183 2.27383,-3.69641 9.71717,-7.52753 10.73933,-0.98391 2.73802,15.13733 -10.47328,29.82698 -4.98608,44.82643 2.96954,2.67573 4.74315,1.94565 5.67297,0.0729 2.9245,4.91899 0.79588,8.95917 0.11902,13.25183 -0.72831,-0.95628 -1.66576,-2.04363 -2.49901,-2.89216 -10.38716,-2.80837 -21.8866,-1.29462 -32.719,-1.95363 -23.02775,0.67509 -46.41921,-1.75934 -69.16402,2.3575 -4.30191,0.58468 -8.07914,2.08994 -11.58544,4.06914 z"
         style="fill:#000000;fill-opacity:1;fill-rule:nonzero;stroke:none;display:inline"
         transform="translate(-145.68882,-239.1525)"
         sodipodi:nodetypes="cccccccccccccc" />
      <path
         id="path4130"
         d="m 446.051,494.82468 c -2.02429,-0.36568 -9.25652,-7.47605 -10.9217,-10.73764 -1.63059,-3.19389 -1.84902,-7.39086 -0.41209,-7.91766 0.61922,-0.227 1.87261,0.48668 3.51511,2.00148 1.4041,1.29485 4.65893,3.27294 7.23304,4.39579 5.70256,2.48751 6.94106,3.98717 6.35833,7.69929 -0.28474,1.81431 -0.89185,2.97493 -1.98602,3.79716 -0.86667,0.65129 -1.74502,1.14836 -1.9519,1.10462 -0.20681,-0.0438 -1.03247,-0.1981 -1.83477,-0.34304 l 0,0 z"
         style="fill:#ffffff;stroke:none;display:inline"
         inkscape:connector-curvature="0"
         transform="translate(-145.68882,-239.1525)" />
      <path
         id="path4138"
         d="m 261.36105,572.40414 c 0,-0.60552 1.23622,-2.53546 2.74712,-4.28876 1.51094,-1.75332 2.91993,-4.08304 3.13114,-5.17721 0.47513,-2.4616 1.83159,-4.61745 2.90532,-4.61745 1.26985,0 2.83161,1.99025 2.83161,3.60844 0,1.65786 -2.34634,4.98157 -6.29802,8.92149 -2.82271,2.8144 -5.31717,3.54316 -5.31717,1.55349 l 0,0 z"
         style="fill:#ffffff;stroke:none;display:inline"
         inkscape:connector-curvature="0"
         transform="translate(-145.68882,-239.1525)" />
      <path
         id="path3114"
         d="m 392.15582,423.95204 c 5.89646,0.85476 5.43298,8.60913 8.3758,11.09749 5.43472,-3.01937 0.67143,-12.60031 -5.12545,-13.71153 -2.44009,-1.89797 -8.17716,1.40675 -3.25035,2.61404 z"
         style="fill:#000000;fill-opacity:1;fill-rule:nonzero;stroke:none;display:inline"
         inkscape:connector-curvature="0"
         transform="translate(-145.68882,-239.1525)" />
      <path
         id="path3112"
         d="m 329.69284,422.61503 c -5.35938,2.55745 3.54968,6.4248 2.69712,10.56252 0.96421,8.11847 5.73813,-1.36523 2.09524,-4.76233 -0.70141,-1.84312 -2.07474,-6.71607 -4.79236,-5.80019 z"
         style="fill:#000000;fill-opacity:1;fill-rule:nonzero;stroke:none;display:inline"
         inkscape:connector-curvature="0"
         transform="translate(-145.68882,-239.1525)" />
      <path
         id="path4134"
         d="m 399.13738,432.31981 c -2.58114,-6.06398 -3.30178,-7.03323 -6.19548,-8.33266 -2.67498,-1.20124 -2.78093,-1.33265 -1.68874,-2.0956 1.60706,-1.12259 3.13158,-1.02048 5.74946,0.38514 4.12866,2.21675 6.72843,7.91442 5.01049,10.98095 -1.01432,1.81065 -1.81728,1.54878 -2.87567,-0.93783 l -6e-5,0 z"
         style="fill:#ffffff;stroke:none;display:inline"
         inkscape:connector-curvature="0"
         transform="translate(-145.68882,-239.1525)" />
      <path
         id="path4140"
         d="m 332.59333,433.0656 c -0.33934,-1.47634 -1.53458,-3.97448 -2.65605,-5.55142 -1.80813,-2.54245 -1.89302,-3.00684 -0.74861,-4.10011 1.13262,-1.082 1.43038,-1.08489 2.43298,-0.0235 2.19051,2.31894 4.27234,8.0774 3.70328,10.24338 -0.7639,2.90767 -1.99139,2.65233 -2.7316,-0.56831 z"
         style="fill:#ffffff;stroke:none;display:inline"
         inkscape:connector-curvature="0"
         transform="translate(-145.68882,-239.1525)" />
      <path
         sodipodi:nodetypes="csccccccccsc"
         style="fill:#f8c200;fill-opacity:1;fill-rule:evenodd;stroke:none;display:inline"
         d="m 107.47335,426.57322 c 16.97018,16.80535 38.91986,44.13651 51.95284,65.39796 11.23055,18.32105 23.73527,35.55008 12.88255,53.92275 -2.43239,22.90516 -30.47675,14.42756 -46.28163,11.31035 -29.58883,-7.78398 -59.32627,-15.1352 -89.01179,-22.58147 -4.60691,-3.17663 -17.9842,-2.25449 -15.82797,-8.59183 2.74572,-9.46094 7.49606,-18.93996 9.03988,-28.39006 -2.94161,-11.05345 -10.69462,-21.57622 -8.88773,-33.20719 8.81448,-10.20366 26.32568,0.0121 37.75431,-7.6135 8.55049,-0.5412 6.7685,-9.76499 9.25162,-15.40471 2.23193,-9.54402 1.939408,-16.91009 12.368675,-21.67403 8.491568,-3.87883 21.041475,0.60647 26.759245,6.83173 z"
         id="path4110"
         inkscape:connector-curvature="0" />
      <path
         sodipodi:nodetypes="ccccccccccccccccsccsc"
         id="path3995"
         d="m 177.43252,550.94063 c -9.21814,5.20334 -16.5637,13.68233 -26.6477,17.32047 -16.71775,2.65909 -32.0196,-7.1598 -47.33396,-11.97351 -25.67239,-10.1607 -53.98199,-11.532 -80.14755,-19.9815 -9.11164,-2.86836 -9.56553,-13.12754 -5.49947,-19.96869 5.59839,-11.13944 5.41215,-23.9291 0.53088,-35.25084 -2.91987,-8.94684 -0.95571,-23.47456 11.48378,-24.05022 11.44406,-0.27366 27.12651,2.25372 33.23432,-9.64311 3.14003,-4.56551 2.99189,-11.36642 7.52382,-14.84117 3.84319,7.36363 -0.68436,16.75103 -4.40071,23.66571 -8.80585,10.73778 -24.35547,4.77617 -36.31344,5.303 -9.6553,1.11194 -6.50756,12.04903 -3.00832,17.42406 7.12515,11.88369 9.35132,28.10752 -1.42127,38.77655 -5.76834,4.4693 -3.60748,12.33492 4.15886,12.60579 35.4094,8.49526 70.89049,16.90418 106.51262,24.47934 12.12974,2.44969 26.5556,-2.21826 30.28201,-14.32198 4.96342,-11.2195 4.50071,-24.9346 -0.65234,-36.29023 -1.15911,-2.5543 -4.279,-8.03783 -6.63133,-12.86335 l 9.33634,13.75224 c 7.76099,10.51045 22.17757,28.75139 14.03745,41.7217 -1.39471,2.22231 -3.07735,3.11656 -5.04399,4.13574 z"
         style="fill:#000000;fill-opacity:1;fill-rule:nonzero;stroke:none;display:inline"
         inkscape:connector-curvature="0" />
      <path
         style="fill:#f8c200;fill-opacity:1;fill-rule:evenodd;stroke:none;display:inline"
         d="m 403.42269,445.86199 c -0.0791,7.6043 -0.15834,15.20863 -0.23752,22.81295 10.15616,6.92292 21.45557,12.89719 30.90745,20.4045 9.50928,9.90014 3.576,18.3032 -8.86782,22.98162 -15.88865,6.63518 -30.67103,15.01808 -44.24564,25.23572 -9.35623,5.95675 -18.12228,13.41929 -27.83705,18.46124 -12.05285,0.86765 -24.10571,1.73532 -36.15857,2.60298 -5.63667,-9.79681 -12.91585,-19.20212 -17.53297,-29.24196 1.17409,-31.33085 2.34817,-62.66169 3.52227,-93.99254 7.63652,-4.02219 13.91036,-12.46791 23.55796,-9.96174 20.30327,-0.95476 38.88471,9.25625 59.05053,9.16864 7.13716,1.08705 16.82329,3.47534 17.84136,11.52857 l 0,2e-5 z"
         id="path4108"
         inkscape:connector-curvature="0" />
      <path
         id="path3965"
         d="m 293.11001,536.27895 c 1.26709,-2.55201 1.28471,-7.5434 1.80927,-10.1122 4.87353,-23.27603 4.1822,-47.14156 4.44316,-70.74223 -0.27022,-9.99394 -2.93767,-25.00712 9.5676,-29.42379 4.86683,-0.58759 13.63422,-3.26946 16.04178,2.00538 -3.7037,5.45766 -14.24357,0.39989 -17.23497,7.70243 -5.17962,10.87427 -3.61455,23.68757 -1.84403,35.1868 4.20685,15.26633 5.23332,31.1349 1.70421,46.62065 -2.5576,11.22504 -2.02896,24.89298 9.14163,31.94692 13.38949,9.79666 32.67077,4.22297 43.39965,-6.5753 13.27213,-10.55679 28.06845,-19.76448 45.25684,-23.37087 12.01199,-4.0197 27.47823,-7.8082 32.15208,-20.38031 -0.0651,-9.88956 -13.51058,-11.96057 -21.52644,-13.7957 -15.29895,-3.74589 -19.26448,-21.4007 -18.15172,-34.31073 -0.27716,-7.75082 7.5891,-8.80695 5.95958,-0.17019 -0.42248,17.38833 16.91492,27.92686 30.72188,36.14731 8.04297,3.8014 12.71743,15.08855 4.1324,20.82005 -13.31493,10.25627 -28.80215,17.21959 -44.28357,23.98214 -14.68454,7.01943 -26.35569,17.95867 -37.9503,28.68059 -13.35202,10.4169 -33.09793,9.16671 -48.51262,4.02759 -7.45967,-2.69646 -10.42284,-9.70298 -14.70741,-15.32867"
         style="fill:#000000;fill-opacity:1;fill-rule:nonzero;stroke:none;display:inline"
         inkscape:connector-curvature="0" />
      <path
         sodipodi:nodetypes="cccccc"
         id="path3991"
         d="m 389.13838,433.22076 c -12.16955,11.55576 -26.89029,26.89709 -45.99538,23.79918 -14.82985,-4.78899 -24.76624,-20.97397 -22.85602,-35.43151 3.46121,-12.90886 21.15219,-13.92849 32.55537,-11.47442 3.25291,-0.0697 14.44936,7.93863 12.8779,2.62299 10.58873,0.64418 18.90024,6.34883 23.41813,20.48376 z"
         style="fill:#000000;fill-opacity:1;fill-rule:nonzero;stroke:none;display:inline"
         inkscape:connector-curvature="0" />
      <path
         style="fill:#006c34;fill-opacity:1;fill-rule:evenodd;stroke:#000000;stroke-width:6.57600021;stroke-linecap:butt;stroke-linejoin:miter;stroke-miterlimit:10;stroke-opacity:1;stroke-dasharray:none;display:inline"
         d="m 289.88849,103.24784 c 24.9636,-0.49799 36.64782,21.81701 21.99644,42.53264 -12.79239,20.09626 -40.6322,20.42579 -62.60862,23.36844 -29.88638,1.73177 -61.55246,3.27129 -89.66445,-7.97371 -16.6897,-7.27789 -37.15611,-38.71843 -16.44443,-47.03439 21.89678,-8.79179 20.77367,-4.84393 23.76492,-20.642574 3.99544,-21.10253 13.82487,-43.1248 32.08351,-57.09464 18.07979,-9.5916 20.26033,28.01404 32.68472,4.33361 15.25333,-21.43753 39.38222,-6.61056 44.05893,14.89553 3.52927,16.22952 9.92567,31.62192 14.12898,47.615094 z"
         id="path4116"
         inkscape:connector-curvature="0"
         sodipodi:nodetypes="ccccssccsc" />
      <path
         sodipodi:nodetypes="cc"
         style="fill:none;stroke:#000000;stroke-width:6.57633829;stroke-linecap:butt;stroke-linejoin:miter;stroke-miterlimit:10;stroke-opacity:1;stroke-dasharray:none;display:inline"
         d="m 139.46118,117.14937 c 33.62867,45.49425 159.89149,33.56521 178.34525,2.84522"
         id="path4120-6"
         inkscape:connector-curvature="0" />
      <path
         style="fill:#000000;fill-opacity:1;fill-rule:evenodd;stroke:none;stroke-width:0.17756335000000001;stroke-linecap:butt;stroke-linejoin:miter;stroke-miterlimit:10;stroke-opacity:1;stroke-dasharray:none;display:inline"
         d="m 159.54841,106.89551 c 37.36717,10.26274 79.3151,17.18779 116.77335,3.58875 9.47785,-3.23766 16.34199,-14.762433 16.75462,4.34473 0.24653,11.41565 8.53529,19.30305 1.69723,22.65883 -40.44952,15.93698 -101.9237,15.01864 -136.25135,-1.80879 -5.15636,-6.86691 0.7629,-20.13781 1.02615,-28.78352 z"
         id="path4118"
         inkscape:connector-curvature="0"
         sodipodi:nodetypes="ccsccc" />
      <g
         id="g3057"
         style="display:inline"
         transform="translate(-145.68882,-239.1525)">
        <path
           inkscape:connector-curvature="0"
           id="path4124"
           d="m 517.02542,288.78824 c -28.76116,23.07925 -56.39823,48.64105 -72.6807,81.31492 -18.78146,-0.49478 -11.03643,-18.05637 -11.64245,-30.61129 0.69491,-27.13576 -0.96154,-54.29894 -4.56026,-81.22397 32.14094,-3.0752 68.01,6.11296 88.88341,30.52034 z"
           style="fill:#ffffff;fill-opacity:1;fill-rule:evenodd;stroke:#000000;stroke-width:6.57633829;stroke-linecap:butt;stroke-linejoin:miter;stroke-miterlimit:10;stroke-opacity:1;stroke-dasharray:none" />
        <path
           sodipodi:nodetypes="ccccc"
           inkscape:connector-curvature="0"
           id="path4126"
           d="m 430.45667,278.97813 c 24.11568,4.78447 47.03876,11.62624 68.3531,23.44545 -19.27943,17.39006 -32.80723,34.21969 -32.80723,34.21969 -12.89435,-11.14801 -32.50544,-13.91412 -32.50544,-13.91412 0,0 -2.30645,-33.34508 -3.04043,-43.75102 z"
           style="fill:#000000;fill-opacity:1;fill-rule:evenodd;stroke:#000000;stroke-width:6.57633829;stroke-linecap:butt;stroke-linejoin:miter;stroke-miterlimit:10;stroke-opacity:1;stroke-dasharray:none" />
      </g>
    </g>
  </g>
</svg>
